<svg aria-hidden="true" style="position: absolute; width: 0; height: 0; overflow: hidden;" version="1.1" xmlns="http://www.w3.org/2000/svg" xmlns:xlink="http://www.w3.org/1999/xlink">
<defs>
<symbol id="icon-cloud-download" viewBox="0 0 32 32">
<path d="M27.844 11.252c-0.101-4.022-3.389-7.252-7.433-7.252-2.369 0-4.477 1.109-5.839 2.835-0.764-0.987-1.959-1.624-3.303-1.624-2.307 0-4.176 1.871-4.176 4.179 0 0.201 0.015 0.399 0.043 0.592-0.351-0.063-0.711-0.098-1.080-0.098-3.344-0-6.054 2.712-6.054 6.058s2.71 6.058 6.054 6.058h2.868l7.078 7.328 7.078-7.328 3.484-0c3.004-0.006 5.438-2.444 5.438-5.451 0-2.565-1.771-4.716-4.156-5.296zM16 26l-6-6h4v-6h4v6h4l-6 6z"></path>
</symbol>
<symbol id="icon-ebox" viewBox="0 0 32 32">
<path d="M1.252 19.964l14.627 8.533v3.503l-14.625-8.533v-3.501zM30.749 19.964v3.501l-14.628 8.533v-3.501l14.627-8.535zM1.252 14.213l14.627 8.533v3.503l-9.631-5.619-1.424 0.829-3.004-1.751 1.427-0.831-1.995-1.164v-3.501zM30.749 14.213v3.501l-1.995 1.164 1.427 0.832-3.004 1.751-1.427-0.831-9.632 5.619v-3.503l14.629-8.533zM1.252 8.463l14.627 8.533v3.503l-4.7-2.743-1.423 0.829-3.003-1.752 1.423-0.829-1.905-1.111-1.421 0.829-3.004-1.752 1.424-0.829-2.019-1.177zM30.749 8.463v3.501l-2.019 1.177 1.427 0.829-3.005 1.753-1.424-0.831-1.904 1.111 1.424 0.829-3.003 1.752-1.427-0.829-4.7 2.743v-3.503l14.629-8.533zM16 11.445l4.315 2.513-3.003 1.752-1.311-0.764-1.309 0.764-3.003-1.752 4.313-2.513zM16 5.721l9.221 5.373-3.003 1.753-6.219-3.624-6.216 3.623-3.004-1.752zM16 0l14.129 8.233-3.003 1.752-11.127-6.483-11.124 6.483-3.003-1.752 14.127-8.233z"></path>
</symbol>
<symbol id="icon-ebox1" viewBox="0 0 32 32">
<path d="M1.252 19.964l14.627 8.533v3.503l-14.625-8.533v-3.501zM30.749 19.964v3.501l-14.628 8.533v-3.501l14.627-8.535zM1.252 14.213l14.627 8.533v3.503l-9.631-5.619-1.424 0.829-3.004-1.751 1.427-0.831-1.995-1.164v-3.501zM30.749 14.213v3.501l-1.995 1.164 1.427 0.832-3.004 1.751-1.427-0.831-9.632 5.619v-3.503l14.629-8.533zM1.252 8.463l14.627 8.533v3.503l-4.7-2.743-1.423 0.829-3.003-1.752 1.423-0.829-1.905-1.111-1.421 0.829-3.004-1.752 1.424-0.829-2.019-1.177zM30.749 8.463v3.501l-2.019 1.177 1.427 0.829-3.005 1.753-1.424-0.831-1.904 1.111 1.424 0.829-3.003 1.752-1.427-0.829-4.7 2.743v-3.503l14.629-8.533zM16 11.445l4.315 2.513-3.003 1.752-1.311-0.764-1.309 0.764-3.003-1.752 4.313-2.513zM16 5.721l9.221 5.373-3.003 1.753-6.219-3.624-6.216 3.623-3.004-1.752zM16 0l14.129 8.233-3.003 1.752-11.127-6.483-11.124 6.483-3.003-1.752 14.127-8.233z"></path>
</symbol>
<symbol id="icon-home" viewBox="0 0 32 32">
<path d="M32 18.451l-16-12.42-16 12.42v-5.064l16-12.42 16 12.42zM28 18v12h-8v-8h-8v8h-8v-12l12-9z"></path>
</symbol>
<svg xmlns="http://www.w3.org/2000/svg" style="display: none;">
  <symbol id="icon-romio-plitchnik" viewBox="0 0 500 200">
    <!-- Силуэт головы -->
    <g fill="#212121">
      <circle cx="70" cy="70" r="48"/>
      <rect x="50" y="55" width="40" height="10" rx="2" fill="white"/>
      <rect x="60" y="80" width="20" height="10" fill="white"/>
      <path d="M40 100Q70 130 100 100Q95 150 45 150Q40 120 40 100Z"/>
    </g>
    <!-- Шпатель-гребёнка -->
    <g transform="translate(120,60)">
      <rect width="30" height="40"/>
      <rect y="5" width="10" height="5" fill="white"/>
      <rect y="15" width="10" height="5" fill="white"/>
      <rect y="25" width="10" height="5" fill="white"/>
      <rect y="35" width="10" height="5" fill="white"/>
    </g>
    <!-- Текст -->
    <text x="180" y="120" font-family="Raleway, sans-serif" font-weight="700" font-size="50">
      <tspan fill="url(#gradient)">ROMIO:</tspan>
      <tspan fill="#212121" dy="10">PLITOCHNIK</tspan>
    </text>
    <linearGradient id="gradient" x1="0" y1="0" x2="1" y2="0">
      <stop offset="0%" stop-color="#1A237E"/>
      <stop offset="100%" stop-color="#283593"/>
    </linearGradient>
  </symbol>
</svg>
</defs>
</svg>
